<?xml version="1.0" encoding="UTF-8" standalone="no"?>
<!-- Created with Inkscape (http://www.inkscape.org/) -->

<svg
   width="120"
   height="120"
   viewBox="0 0 31.75 31.75"
   version="1.1"
   id="svg1"
   xml:space="preserve"
   xmlns:inkscape="http://www.inkscape.org/namespaces/inkscape"
   xmlns:sodipodi="http://sodipodi.sourceforge.net/DTD/sodipodi-0.dtd"
   xmlns="http://www.w3.org/2000/svg"
   xmlns:svg="http://www.w3.org/2000/svg"><sodipodi:namedview
     id="namedview1"
     pagecolor="#ffffff"
     bordercolor="#000000"
     borderopacity="0.25"
     inkscape:showpageshadow="2"
     inkscape:pageopacity="0.0"
     inkscape:pagecheckerboard="0"
     inkscape:deskcolor="#d1d1d1"
     inkscape:document-units="mm" /><defs
     id="defs1"><inkscape:path-effect
       effect="bspline"
       id="path-effect23-7"
       is_visible="true"
       lpeversion="1.3"
       weight="33.333333"
       steps="2"
       helper_size="0"
       apply_no_weight="true"
       apply_with_weight="true"
       only_selected="false"
       uniform="false" /><inkscape:path-effect
       effect="bspline"
       id="path-effect22-3"
       is_visible="true"
       lpeversion="1.3"
       weight="33.333333"
       steps="2"
       helper_size="0"
       apply_no_weight="true"
       apply_with_weight="true"
       only_selected="false"
       uniform="false" /><inkscape:path-effect
       effect="bspline"
       id="path-effect16-4"
       is_visible="true"
       lpeversion="1.3"
       weight="33.333333"
       steps="2"
       helper_size="0"
       apply_no_weight="true"
       apply_with_weight="true"
       only_selected="false"
       uniform="false" /><inkscape:path-effect
       effect="bspline"
       id="path-effect14-0"
       is_visible="true"
       lpeversion="1.3"
       weight="33.333333"
       steps="2"
       helper_size="0"
       apply_no_weight="true"
       apply_with_weight="true"
       only_selected="false"
       uniform="false" /><inkscape:path-effect
       effect="spiro"
       id="path-effect13-77"
       is_visible="true"
       lpeversion="1" /><inkscape:path-effect
       effect="spiro"
       id="path-effect12-1"
       is_visible="true"
       lpeversion="1" /><inkscape:path-effect
       effect="spiro"
       id="path-effect11-9"
       is_visible="true"
       lpeversion="1" /><inkscape:path-effect
       effect="spiro"
       id="path-effect9-7"
       is_visible="true"
       lpeversion="1" /><inkscape:path-effect
       effect="spiro"
       id="path-effect8-4"
       is_visible="true"
       lpeversion="1" /><inkscape:path-effect
       effect="spiro"
       id="path-effect7-1"
       is_visible="true"
       lpeversion="1" /><inkscape:path-effect
       effect="spiro"
       id="path-effect3-4"
       is_visible="true"
       lpeversion="1" /><inkscape:path-effect
       effect="spiro"
       id="path-effect1-62"
       is_visible="true"
       lpeversion="1" /><inkscape:path-effect
       effect="spiro"
       id="path-effect1-4-8"
       is_visible="true"
       lpeversion="1" /><inkscape:path-effect
       effect="spiro"
       id="path-effect1-5-4"
       is_visible="true"
       lpeversion="1" /><inkscape:path-effect
       effect="spiro"
       id="path-effect1-6-0"
       is_visible="true"
       lpeversion="1" /><inkscape:path-effect
       effect="spiro"
       id="path-effect8-7-0"
       is_visible="true"
       lpeversion="1" /><inkscape:path-effect
       effect="spiro"
       id="path-effect8-3-9"
       is_visible="true"
       lpeversion="1" /><inkscape:path-effect
       effect="bspline"
       id="path-effect14-5-7"
       is_visible="true"
       lpeversion="1.3"
       weight="33.333333"
       steps="2"
       helper_size="0"
       apply_no_weight="true"
       apply_with_weight="true"
       only_selected="false"
       uniform="false" /><inkscape:path-effect
       effect="bspline"
       id="path-effect23-9-5"
       is_visible="true"
       lpeversion="1.3"
       weight="33.333333"
       steps="2"
       helper_size="0"
       apply_no_weight="true"
       apply_with_weight="true"
       only_selected="false"
       uniform="false" /></defs><g
     inkscape:label="Laag 1"
     inkscape:groupmode="layer"
     id="layer1"><g
       id="g2"
       transform="matrix(0.68275757,0,0,0.68275757,56.710755,46.371858)"><path
         style="fill:none;stroke:#000000;stroke-width:5;stroke-linecap:round;stroke-dasharray:none;stroke-opacity:1"
         d="m 57.362133,158.68933 c 7.531249,1.9113 15.258007,3.05132 23.020331,3.39644 9.041821,0.40201 18.131174,-0.27587 27.013336,-2.01464"
         id="path1"
         transform="matrix(0.17079107,-0.00647514,0.00647514,0.17079107,-75.999944,-68.49615)"
         sodipodi:nodetypes="csc"
         inkscape:original-d="m 57.362133,158.68933 c 11.321476,5.34625 12.076241,-1.76112 23.020331,3.39644 10.944092,5.15756 15.440271,-0.12773 27.013336,-2.01464"
         inkscape:path-effect="#path-effect1-62" /><path
         style="fill:none;stroke:#000000;stroke-width:5;stroke-linecap:round;stroke-dasharray:none;stroke-opacity:1"
         d="m 59.626428,158.97237 c 6.786063,1.75235 13.75449,2.79761 20.756036,3.1134 8.372992,0.37765 16.79258,-0.28957 25.001586,-1.98126"
         id="path1-5"
         transform="matrix(0.17079107,-0.00647514,0.00647514,0.17079107,-76.010809,-69.394517)"
         sodipodi:nodetypes="csc"
         inkscape:original-d="m 59.626428,158.97237 c 11.321476,5.34625 9.811946,-2.04416 20.756036,3.1134 10.944092,5.15756 13.428528,-0.0943 25.001586,-1.98126"
         inkscape:path-effect="#path-effect1-4-8" /><path
         style="fill:none;stroke:#000000;stroke-width:5;stroke-linecap:round;stroke-dasharray:none;stroke-opacity:1"
         d="m 64.5324,160.19886 c 6.561414,1.54415 13.306456,2.30649 20.046998,2.26574 4.566636,-0.0276 9.130998,-0.42289 13.634389,-1.18078"
         id="path1-6"
         transform="matrix(0.17079107,-0.00647514,0.00647514,0.17079107,-75.910421,-71.26914)"
         sodipodi:nodetypes="csc"
         inkscape:original-d="m 64.5324,160.19886 c 11.321476,5.34625 9.546086,5.28924 20.046998,2.26574 8.778438,-2.52755 1.014062,-1.10849 13.634389,-1.18078"
         inkscape:path-effect="#path-effect1-5-4" /><path
         style="fill:none;stroke:#000000;stroke-width:5;stroke-linecap:round;stroke-dasharray:none;stroke-opacity:1"
         d="m 61.324649,159.82148 c 6.304398,1.51154 12.765953,2.36675 19.246506,2.54733 7.05066,0.19647 14.123282,-0.40613 21.039075,-1.79257"
         id="path1-8"
         transform="matrix(0.17079107,-0.00647514,0.00647514,0.17079107,-75.82516,-70.335741)"
         sodipodi:nodetypes="csc"
         inkscape:original-d="m 61.324649,159.82148 c 11.321476,5.34625 8.302416,-2.61023 19.246506,2.54733 10.944092,5.15756 9.466013,0.0943 21.039075,-1.79257"
         inkscape:path-effect="#path-effect1-6-0" /><path
         style="fill:none;stroke:#000000;stroke-width:3.06501;stroke-linecap:round;stroke-dasharray:none;stroke-opacity:1"
         d="m 106.42185,136.42376 c 2.10943,1.5159 3.81744,3.58522 4.90598,5.94377 1.44944,3.14052 1.76581,6.85085 0.56607,10.09498 -0.43523,1.17687 -1.06137,2.28291 -1.8465,3.2617"
         id="path3"
         sodipodi:nodetypes="cssc"
         inkscape:original-d="m 106.42185,136.42376 c 1.88692,0.94345 5.35612,3.52506 4.90598,5.94377 -2.77185,14.89371 0.62897,5.94378 0.56607,10.09498 -0.0629,4.15121 -0.58856,1.56348 -1.8465,3.2617"
         inkscape:path-effect="#path-effect3-4"
         transform="matrix(0.17091377,0,0,0.17091377,-77.002066,-71.725095)" /><g
         id="g16"
         transform="matrix(0.14265756,0,0,0.14265756,-74.282387,-69.343167)"><path
           style="fill:none;stroke:#000000;stroke-width:6;stroke-linecap:round;stroke-dasharray:none;stroke-opacity:1"
           d="m 88.475755,73.799356 c 1.893119,3.650628 4.079189,7.149288 6.530279,10.451279 2.433907,3.278844 5.129076,6.363701 8.051536,9.215704"
           id="path6"
           transform="rotate(9.0903893,69.635289,94.955063)"
           sodipodi:nodetypes="csc"
           inkscape:original-d="m 88.475755,73.799356 c 1.94981,3.333543 4.58047,7.212078 6.530279,10.451279 1.94981,3.239198 5.692886,6.479682 8.051536,9.215704"
           inkscape:path-effect="#path-effect7-1" /><path
           style="fill:none;stroke:#000000;stroke-width:6;stroke-linecap:round;stroke-dasharray:none;stroke-opacity:1"
           d="m 93.024776,71.797012 c 1.449901,3.210338 3.155265,6.305258 5.094663,9.245873 2.147101,3.255541 4.581121,6.321777 7.264611,9.151524"
           id="path7"
           transform="rotate(7.2892675,70.95209,110.60954)"
           inkscape:original-d="m 93.024776,71.797012 c 1.69822,3.113405 3.396443,6.132465 5.094663,9.245873 1.698221,3.113405 4.843081,6.132464 7.264611,9.151524"
           inkscape:path-effect="#path-effect8-4" /><path
           style="fill:none;stroke:#000000;stroke-width:6;stroke-linecap:round;stroke-dasharray:none;stroke-opacity:1"
           d="m 93.425051,72.730986 c 1.361243,2.879194 2.931521,5.659533 4.694388,8.311899 2.046841,3.079628 4.353431,5.98656 6.887231,8.679796"
           id="path7-0"
           transform="rotate(7.2892675,99.42107,154.60141)"
           sodipodi:nodetypes="csc"
           inkscape:original-d="m 93.425051,72.730986 c 1.69822,3.113405 2.996168,5.198491 4.694388,8.311899 1.698221,3.113405 4.465701,5.660736 6.887231,8.679796"
           inkscape:path-effect="#path-effect8-7-0" /><path
           style="fill:none;stroke:#000000;stroke-width:6;stroke-linecap:round;stroke-dasharray:none;stroke-opacity:1"
           d="m 93.6919,73.39811 c 1.237712,2.676607 2.721859,5.239196 4.427539,7.644775 1.749922,2.467973 3.732981,4.770562 5.914171,6.867114"
           id="path7-02"
           transform="rotate(7.2892675,114.80628,202.8489)"
           sodipodi:nodetypes="csc"
           inkscape:original-d="m 93.6919,73.39811 c 1.69822,3.113405 2.729319,4.531367 4.427539,7.644775 1.698221,3.113405 3.492641,3.848054 5.914171,6.867114"
           inkscape:path-effect="#path-effect8-3-9" /><path
           style="fill:none;stroke:#000000;stroke-width:3.3;stroke-linecap:round;stroke-dasharray:none;stroke-opacity:1"
           d="m 83.523954,77.119564 -2.310746,1.909754 c -3.002149,2.481175 -5.888944,5.155172 -8.096391,8.363958"
           id="path10"
           sodipodi:nodetypes="csc"
           transform="rotate(7.2892675,82.3316,102.23089)"
           inkscape:original-d="m 83.523954,77.119564 -2.310746,1.909754 c -1.968759,1.627113 -6.717668,6.40706 -8.096391,8.363958"
           inkscape:path-effect="#path-effect11-9" /><path
           style="fill:none;stroke:#000000;stroke-width:3.29999;stroke-linecap:round;stroke-dasharray:none;stroke-opacity:1"
           d="m 95.145182,102.00675 c 0.944382,-0.53224 1.822404,-1.18209 2.607339,-1.92976 0.370235,-0.352659 0.71983,-0.726986 1.046399,-1.120426"
           id="path11"
           transform="rotate(7.2892675,65.23683,113.78301)"
           sodipodi:nodetypes="csc"
           inkscape:original-d="m 95.145182,102.00675 c 0.943457,-0.94346 -9.64409,4.56923 2.607339,-1.92976 1.301819,-0.690572 1.624862,1.55026 1.046399,-1.120426"
           inkscape:path-effect="#path-effect12-1" /><path
           style="fill:none;stroke:#000000;stroke-width:3.29999;stroke-linecap:round;stroke-dasharray:none;stroke-opacity:1"
           d="m 116.13945,66.136276 c 3.37549,-2.582359 6.87132,-5.007398 10.47236,-7.264612 0.70972,-0.444871 1.42643,-0.884761 2.19381,-1.220552 0.76737,-0.33579 1.59152,-0.566225 2.42913,-0.572016 1.26514,-0.0087 2.53425,0.526246 3.37552,1.471194 0.84127,0.944949 1.22612,2.29132 0.96438,3.529124 -0.16828,0.795848 -0.58471,1.522525 -1.09785,2.153698 -0.51314,0.631173 -1.12302,1.175773 -1.73252,1.714474 -3.4127,3.016263 -6.90511,5.942338 -10.47236,8.774141"
           id="path12"
           transform="rotate(7.2892675,82.3316,102.23089)"
           inkscape:original-d="m 116.13945,66.136276 c 3.42789,-2.421538 6.95013,-4.843074 10.47236,-7.264612 3.52224,-2.421538 3.11341,-1.132147 4.62294,-1.792568 1.50953,-0.660418 2.79892,3.302098 4.3399,5.000318 1.54098,1.698223 -1.85547,2.547332 -2.83037,3.868172 -0.97491,1.320837 -6.95013,5.849426 -10.47236,8.774141"
           inkscape:path-effect="#path-effect13-77" /><path
           style="fill:none;stroke:#ff0000;stroke-width:6;stroke-linecap:round;stroke-dasharray:none;stroke-opacity:1"
           d="m 110.10133,69.627064 c 1.20735,1.971839 2.49828,3.892496 3.86817,5.755082 1.31275,1.784898 2.69801,3.516469 4.15121,5.18901"
           id="path8"
           transform="rotate(7.2892675,100.20943,125.91057)"
           sodipodi:nodetypes="csc"
           inkscape:original-d="m 110.10133,69.627064 c 1.76112,2.641677 2.10706,3.113405 3.86817,5.755082 1.76112,2.641679 2.45299,2.893265 4.15121,5.18901"
           inkscape:path-effect="#path-effect9-7" /><path
           style="fill:none;stroke:#000000;stroke-width:3.29999;stroke-linecap:round;stroke-dasharray:none;stroke-opacity:1"
           d="m 117.94757,60.441456 c -1.51215,-2.090322 -3.0243,-4.180645 -3.84709,-7.116029 -0.82279,-2.935384 -0.95621,-6.715679 0.2224,-9.828949 1.17861,-3.11327 3.66916,-5.559344 6.98259,-7.738636 3.31342,-2.179293 7.44951,-4.091678 11.98601,-5.003413 4.53649,-0.911736 9.47311,-0.822788 12.4614,-0.150286 2.98829,0.672502 4.02809,1.928484 4.23668,3.023504 0.2086,1.095019 -0.41402,2.028954 -1.15633,2.512825 -0.74231,0.483871 -1.60423,0.517616 -3.23604,0.467775 -1.63182,-0.04984 -4.03339,-0.183261 -6.47956,0.03912 -2.44616,0.222378 -4.93667,0.800533 -6.58227,1.267527 -1.6456,0.466994 -2.44612,0.822781 -3.66921,1.512156 -1.22308,0.689376 -2.86862,1.712281 -3.73588,3.380116 -0.86726,1.667834 -0.95621,3.980483 -0.71159,6.004112 0.24462,2.023629 0.82278,3.758116 1.40095,5.492638"
           id="path13"
           sodipodi:nodetypes="ccccccccccccccc"
           transform="rotate(7.2892675,82.3316,102.23089)"
           inkscape:original-d="m 117.94757,60.441456 c -1.51215,-2.090322 -3.0243,-4.180645 -4.53645,-6.270967 -0.13343,-3.780446 -0.26685,-7.560741 -0.40027,-11.341113 2.49064,-2.446171 4.98119,-4.892243 7.47179,-7.338367 4.13625,-1.912461 8.27234,-3.824845 12.40851,-5.737267 4.93682,0.08895 9.87344,0.177898 14.81016,0.266848 1.03986,1.256053 2.07966,2.512034 3.11951,3.768086 -0.62266,0.933991 -1.24528,1.867928 -1.86795,2.801921 -0.86195,0.03375 -1.72387,0.06749 -2.58581,0.101237 -2.40169,-0.133428 -4.80326,-0.266848 -7.20495,-0.400276 -2.49064,0.578185 -4.98115,1.15634 -7.47179,1.734523 -0.80056,0.355805 -1.60108,0.711593 -2.40165,1.067399 -1.6456,1.022942 -3.29114,2.045847 -4.93671,3.068773 -0.089,2.312742 -0.1779,4.625393 -0.26685,6.938092 0.57819,1.734558 1.15635,3.469045 1.73452,5.203568"
           inkscape:path-effect="#path-effect14-0" /><path
           style="fill:none;stroke:#000000;stroke-width:3.29999;stroke-linecap:round;stroke-dasharray:none;stroke-opacity:1"
           d="m 117.94757,60.441456 c -1.51215,-2.090322 -3.0243,-4.180645 -3.84709,-7.116029 -0.82279,-2.935384 -0.95621,-6.715679 0.161,-10.189548 1.11721,-3.473868 3.48492,-6.641056 6.75533,-9.13095 3.27041,-2.489894 7.44313,-4.302201 12.04106,-4.853356 4.59794,-0.551154 9.62064,0.158924 12.72121,1.134878 3.10057,0.975953 4.27885,2.2177 4.53943,3.432553 0.26058,1.214854 -0.39657,2.402682 -1.24643,3.021254 -0.84987,0.618572 -1.89235,0.667818 -3.57615,0.498144 -1.68381,-0.169673 -4.00876,-0.558249 -6.41661,-0.463454 -2.40785,0.09479 -4.89836,0.672949 -6.54396,1.139943 -1.6456,0.466994 -2.44612,0.822781 -3.66921,1.512156 -1.22308,0.689376 -2.86862,1.712281 -3.73588,3.380116 -0.86726,1.667834 -0.95621,3.980483 -0.62771,6.271319 0.3285,2.290836 1.07442,4.559715 1.82036,6.828641"
           id="path13-9"
           sodipodi:nodetypes="ccccccccccccccc"
           transform="matrix(0.42017007,-0.90744537,-0.90744537,-0.42017007,138.08316,213.22955)"
           inkscape:original-d="m 117.94757,60.441456 c -1.51215,-2.090322 -3.0243,-4.180645 -4.53645,-6.270967 -0.13343,-3.780446 -0.26685,-7.560741 -0.40027,-11.341113 2.36784,-3.167367 4.73555,-6.334555 7.1034,-9.501925 4.17297,-1.812415 8.34569,-3.624723 12.51866,-5.437139 5.0229,0.710107 10.0456,1.420185 15.0684,2.130278 1.17834,1.241815 2.35662,2.48356 3.53496,3.725374 -0.65718,1.187895 -1.31433,2.37572 -1.97151,3.563618 -1.04255,0.04925 -2.08503,0.09849 -3.12758,0.147742 -2.32506,-0.388595 -4.65001,-0.777171 -6.97507,-1.165766 -2.49064,0.578185 -4.98115,1.15634 -7.47179,1.734523 -0.80056,0.355805 -1.60108,0.711593 -2.40165,1.067399 -1.6456,1.022942 -3.29114,2.045847 -4.93671,3.068773 -0.089,2.312742 -0.1779,4.625393 -0.26685,6.938092 0.74595,2.268974 1.49187,4.537853 2.23781,6.806778"
           inkscape:path-effect="#path-effect14-5-7" /></g><path
         style="fill:none;stroke:#000000;stroke-width:3.1;stroke-linecap:round;stroke-dasharray:none;stroke-opacity:1"
         d="m 77.363405,143.40534 c -0.628968,1.13214 -1.257939,2.26429 -1.525252,3.94681 -0.267313,1.68252 -0.172969,3.91532 0.07862,5.36196 0.251592,1.44664 0.660419,2.10705 1.069247,2.76746"
         id="path15"
         sodipodi:nodetypes="cccc"
         inkscape:original-d="m 77.363405,143.40534 c -0.62897,1.13214 -1.257939,2.26429 -1.886912,3.39644 0.09434,2.23289 0.188691,4.46569 0.283036,6.69854 0.408836,0.66043 0.817664,1.32084 1.226494,1.98125"
         inkscape:path-effect="#path-effect16-4"
         transform="matrix(0.17091377,0,0,0.17091377,-77.002066,-71.725095)" /><ellipse
         style="fill:#000000;fill-opacity:1;stroke:none;stroke-width:0.87035;stroke-linecap:round;stroke-dasharray:none;stroke-opacity:1"
         id="path17"
         cx="-61.45903"
         cy="-48.726746"
         rx="0.56287658"
         ry="0.56949866" /><ellipse
         style="fill:#000000;fill-opacity:1;stroke:none;stroke-width:0.87035;stroke-linecap:round;stroke-dasharray:none;stroke-opacity:1"
         id="path17-1"
         cx="-63.467545"
         cy="-54.267365"
         rx="0.56287658"
         ry="0.56949866" /><path
         style="fill:none;fill-opacity:1;stroke:#000000;stroke-width:1.8;stroke-linecap:round;stroke-dasharray:none;stroke-opacity:1"
         d="m 36.519614,144.62397 c 0.66828,1.83187 1.627462,4.69369 2.382233,6.8951 0.754772,2.20142 1.305111,3.74237 2.169957,5.00032 0.864846,1.25795 2.04414,2.23283 3.372857,2.74387 1.328716,0.51104 2.806767,0.55822 4.190516,0.27517 1.383749,-0.28304 2.673116,-0.89627 3.679476,-1.83188 1.00636,-0.93561 1.729662,-2.19353 2.044146,-3.70307 0.314483,-1.50955 0.220139,-3.27063 -0.345946,-5.68434 -0.566085,-2.41371 -1.603865,-5.47988 -2.704576,-8.58545 -1.10071,-3.10558 -2.264283,-6.25037 -3.262784,-8.45964 -0.998501,-2.20928 -1.831865,-3.48291 -2.908991,-4.4421 -1.077125,-0.95919 -2.397937,-1.60387 -3.821,-1.83187 -1.423062,-0.228 -2.948284,-0.0393 -4.198373,0.47173 -1.250089,0.51105 -2.224973,1.34442 -2.940432,2.3901 -0.71546,1.04567 -1.171456,2.30359 -1.273661,3.71879 -0.102205,1.4152 0.149379,2.9876 0.57394,4.61507 0.424561,1.62748 1.022073,3.30995 1.509529,4.55217 0.487455,1.24223 0.864828,2.04415 1.533109,3.87603 z"
         id="path21"
         inkscape:path-effect="#path-effect22-3"
         inkscape:original-d="m 36.228715,143.59403 c 0.959181,2.86181 1.918362,5.72363 2.877543,8.58545 0.550359,1.54101 1.100698,3.08196 1.651047,4.62293 1.179343,0.97493 2.358641,1.94981 3.537961,2.92472 1.47811,0.0472 2.956163,0.0943 4.434244,0.14152 1.289416,-0.61326 2.57878,-1.2265 3.868172,-1.83974 0.723328,-1.25797 1.44663,-2.51589 2.169948,-3.77383 -0.09435,-1.76115 -0.188693,-3.52223 -0.283038,-5.28335 -1.037823,-3.0663 -2.075603,-6.13247 -3.113405,-9.1987 -1.163619,-3.14492 -2.32719,-6.28971 -3.490788,-9.43456 -0.833403,-1.2737 -1.666772,-2.54733 -2.500159,-3.821 -1.320863,-0.64471 -2.641677,-1.28939 -3.962514,-1.93409 -1.525286,0.1887 -3.050508,0.37739 -4.575762,0.56608 -0.974926,0.8334 -1.94981,1.66677 -2.924715,2.50016 -0.456014,1.25796 -0.912008,2.51588 -1.368012,3.77382 0.251592,1.57246 0.503177,3.14486 0.754766,4.71728 0.597533,1.68253 1.195044,3.365 1.792566,5.04749 0.377391,0.80196 0.754766,1.60388 1.132146,2.40582 z"
         transform="matrix(0.28072845,-0.00408867,0.00408867,0.28072845,-75.330084,-91.322414)" /><path
         style="fill:none;fill-opacity:1;stroke:#ff0000;stroke-width:1.8;stroke-linecap:round;stroke-dasharray:none;stroke-opacity:1"
         d="m 38.042761,128.29355 c -0.59485,0.328 -1.173027,0.79499 -1.62056,1.52328 -0.447534,0.72829 -0.7644,1.7178 -0.850574,2.53783 -0.08617,0.82003 0.05836,1.47044 0.328,2.13758 0.269638,0.66715 0.664343,1.35094 1.220285,1.84573 0.555941,0.49478 1.273074,0.80054 2.140354,0.91729 0.867281,0.11675 1.884623,0.0445 2.743553,-0.18069 0.85893,-0.22516 1.559398,-0.60319 2.076421,-1.20361 0.517024,-0.60042 0.85058,-1.42319 0.995121,-2.33493 0.144542,-0.91175 0.100068,-1.91242 -0.277975,-2.84084 -0.378044,-0.92842 -1.089632,-1.78455 -1.968022,-2.29045 -0.87839,-0.50591 -1.92353,-0.66157 -2.751882,-0.64489 -0.828351,0.0167 -1.43987,0.2057 -2.034721,0.5337 z"
         id="path22"
         inkscape:path-effect="#path-effect23-7"
         inkscape:original-d="m 38.026083,128.15457 c -0.578176,0.46698 -1.156351,0.93397 -1.734524,1.40096 -0.316892,0.98959 -0.633759,1.9791 -0.950653,2.9687 0.144548,0.65046 0.289083,1.30087 0.433631,1.95133 0.394726,0.68383 0.78943,1.36762 1.184145,2.05142 0.717172,0.30577 1.434303,0.61153 2.151477,0.9173 1.017386,-0.0723 2.03473,-0.14455 3.052094,-0.21682 0.700493,-0.37805 1.400961,-0.75608 2.10144,-1.13411 0.333568,-0.82281 0.667126,-1.64558 1.000686,-2.46836 -0.04447,-1.00071 -0.08895,-2.00138 -0.133424,-3.00206 -0.711613,-0.85616 -1.423199,-1.71229 -2.134799,-2.56843 -1.045181,-0.15567 -2.090322,-0.31133 -3.135481,-0.46699 -0.611545,0.18902 -1.223063,0.37804 -1.834592,0.56706 z"
         transform="matrix(0.28075823,0,0,0.28075823,-74.802515,-91.478872)"
         sodipodi:nodetypes="ccccccccccccc" /><path
         style="fill:none;fill-opacity:1;stroke:#ff0000;stroke-width:1.8;stroke-linecap:round;stroke-dasharray:none;stroke-opacity:1"
         d="m 38.042761,128.29355 c -0.59485,0.328 -1.173027,0.79499 -1.617781,1.5344 -0.444754,0.73941 -0.756063,1.75116 -0.850574,2.57675 -0.09451,0.82559 0.02779,1.46488 0.294643,2.1209 0.266855,0.65602 0.678238,1.32869 1.2592,1.81514 0.580961,0.48645 1.331449,0.78665 2.198728,0.9034 0.867278,0.11675 1.851268,0.05 2.671282,-0.18346 0.820013,-0.2335 1.475988,-0.63376 1.993022,-1.23418 0.517034,-0.60043 0.895065,-1.40097 1.061844,-2.30159 0.166778,-0.90063 0.122304,-1.9013 -0.255739,-2.82972 -0.378044,-0.92842 -1.089632,-1.78455 -1.968022,-2.29045 -0.87839,-0.50591 -1.92353,-0.66157 -2.751882,-0.64489 -0.828351,0.0167 -1.43987,0.2057 -2.034721,0.5337 z"
         id="path22-5"
         inkscape:path-effect="#path-effect23-9-5"
         inkscape:original-d="m 38.026083,128.15457 c -0.578176,0.46698 -1.156351,0.93397 -1.734524,1.40096 -0.311332,1.01183 -0.622641,2.02358 -0.933975,3.03541 0.12231,0.63935 0.244609,1.27864 0.366918,1.91798 0.411405,0.6727 0.822787,1.34537 1.23418,2.01806 0.750529,0.30021 1.501015,0.60041 2.251546,0.90062 0.984028,-0.0667 1.968017,-0.13343 2.952025,-0.20014 0.65602,-0.40028 1.311992,-0.80054 1.968015,-1.20082 0.378047,-0.80057 0.756077,-1.60111 1.134111,-2.40165 -0.04447,-1.00071 -0.08895,-2.00138 -0.133424,-3.00206 -0.711613,-0.85616 -1.423199,-1.71229 -2.134799,-2.56843 -1.045181,-0.15567 -2.090322,-0.31133 -3.135481,-0.46699 -0.611545,0.18902 -1.223063,0.37804 -1.834592,0.56706 z"
         transform="matrix(0.28075823,0,0,0.28075823,-72.768903,-86.025731)"
         sodipodi:nodetypes="ccccccccccccc" /><text
         xml:space="preserve"
         style="font-style:normal;font-variant:normal;font-weight:normal;font-stretch:normal;font-size:9.66912px;font-family:'3ds';-inkscape-font-specification:'3ds';fill:none;fill-opacity:1;stroke:#000000;stroke-width:0.725184;stroke-linecap:round;stroke-dasharray:none;stroke-opacity:1"
         x="-80.836029"
         y="-32.042519"
         id="text23"><tspan
           sodipodi:role="line"
           id="tspan23"
           style="font-style:normal;font-variant:normal;font-weight:normal;font-stretch:normal;font-family:'Mouldy Cheese';-inkscape-font-specification:'Mouldy Cheese';fill:#ff0000;fill-opacity:1;stroke:none;stroke-width:0.725184"
           x="-80.836029"
           y="-32.042519">MiKoBots</tspan></text><g
         id="g1"
         transform="matrix(1.6577478,0,0,1.6577478,-165.64201,-176.66812)"><text
           xml:space="preserve"
           style="font-style:italic;font-variant:normal;font-weight:bold;font-stretch:normal;font-size:3.575px;font-family:Arial;-inkscape-font-specification:'Arial Bold Italic';text-align:center;text-anchor:middle;display:inline;fill:#000000;fill-opacity:1;stroke:none;stroke-width:0.0929499;stroke-linecap:round"
           x="63.475277"
           y="91.17762"
           id="text3"><tspan
             sodipodi:role="line"
             id="tspan3"
             style="stroke-width:0.0929499"
             x="63.475277"
             y="91.17762">Studio</tspan></text></g></g></g></svg>
