<?xml version="1.0" encoding="UTF-8" standalone="no"?>
<!-- Created with Inkscape (http://www.inkscape.org/) -->

<svg
   width="40mm"
   height="40mm"
   viewBox="0 0 40 40"
   version="1.1"
   id="svg1"
   xml:space="preserve"
   sodipodi:docname="floor.svg"
   inkscape:export-filename="camera.svg"
   inkscape:export-xdpi="96"
   inkscape:export-ydpi="96"
   inkscape:version="1.3.2 (091e20e, 2023-11-25, custom)"
   xmlns:inkscape="http://www.inkscape.org/namespaces/inkscape"
   xmlns:sodipodi="http://sodipodi.sourceforge.net/DTD/sodipodi-0.dtd"
   xmlns="http://www.w3.org/2000/svg"
   xmlns:svg="http://www.w3.org/2000/svg"><sodipodi:namedview
     id="namedview1"
     pagecolor="#ffffff"
     bordercolor="#000000"
     borderopacity="0.25"
     inkscape:showpageshadow="2"
     inkscape:pageopacity="0.0"
     inkscape:pagecheckerboard="0"
     inkscape:deskcolor="#d1d1d1"
     inkscape:document-units="mm"
     inkscape:zoom="5.3776562"
     inkscape:cx="75.590551"
     inkscape:cy="75.590551"
     inkscape:window-width="1920"
     inkscape:window-height="1009"
     inkscape:window-x="-8"
     inkscape:window-y="-8"
     inkscape:window-maximized="1"
     inkscape:current-layer="svg1"
     showgrid="false" /><defs
     id="defs1" /><path
     style="fill:#000000;stroke-width:1.08958"
     d="M 5.4562243,35.988329 C 4.3370855,35.716091 3.089009,34.817698 2.3678668,33.76526 L 1.7644984,32.884702 V 22.935386 12.98607 L 2.5156335,11.922692 C 3.7101844,10.231575 4.7605761,9.8253968 8.1491479,9.7442623 9.732791,9.7063449 11.282297,9.6196219 11.592493,9.5515471 c 0.358542,-0.07869 0.84632,-0.624029 1.339024,-1.4970509 1.349458,-2.3911088 1.294597,-2.3725347 7.007399,-2.3725347 3.044417,0 5.193235,0.1053516 5.560314,0.2726011 0.329062,0.1499307 0.961069,0.8711764 1.404461,1.6027699 1.264453,2.0863375 1.248946,2.079289 4.781024,2.1729134 3.662189,0.097071 4.66871,0.4721211 5.883892,2.1924461 l 0.751135,1.063378 v 9.952379 9.952377 l -0.691981,0.99853 c -0.380591,0.549193 -1.169283,1.271916 -1.75265,1.606053 l -1.060666,0.607522 -14.271568,0.04184 c -7.849362,0.023 -14.6383557,-0.0474 -15.0866527,-0.156442 z M 34.892123,33.635987 c 0.318139,-0.17654 0.796246,-0.651396 1.062459,-1.055236 0.45553,-0.691029 0.484065,-1.257486 0.484737,-9.622683 9.27e-4,-11.545153 0.273296,-10.997062 -5.592414,-11.253663 L 27.380122,11.552747 26.465284,10.513818 C 25.962122,9.9424069 25.288368,9.1284956 24.968051,8.7051273 L 24.385656,7.9353669 h -4.128661 c -2.270763,0 -4.332579,0.1091345 -4.581813,0.2425199 -0.249234,0.1333865 -0.79899,0.781459 -1.221678,1.4401628 -1.193162,1.8593814 -1.824825,2.1189454 -5.1285144,2.1074184 -3.30179,-0.01152 -4.3278372,0.278042 -5.1106312,1.442276 -0.568638,0.845724 -0.5720222,0.902521 -0.5720222,9.601727 0,9.571711 0.067096,10.065097 1.4725944,10.828903 0.9201759,0.500061 28.8801814,0.535379 29.7771924,0.03761 z m -17.665852,-2.76671 c -2.689355,-0.876451 -5.067736,-3.163628 -6.078148,-5.845066 -0.786541,-2.087329 -0.635358,-5.394063 0.337529,-7.382569 0.910918,-1.861852 3.198337,-3.976772 5.105108,-4.720126 2.005565,-0.781867 4.897157,-0.781867 6.902722,0 1.912582,0.74562 4.193275,2.857337 5.112851,4.734045 0.626907,1.279422 0.696755,1.684643 0.698191,4.050614 0.0014,2.332152 -0.0744,2.791117 -0.671463,4.065091 -0.856475,1.827472 -2.675835,3.649917 -4.567841,4.57559 -1.217146,0.595494 -1.859013,0.73639 -3.627291,0.79622 -1.343464,0.04546 -2.546821,-0.05713 -3.211658,-0.273799 z m 6.067791,-2.515652 c 4.421684,-2.163327 5.500961,-8.152797 2.100495,-11.656744 -3.762641,-3.877145 -10.361497,-2.577185 -12.226949,2.408681 -0.869482,2.3239 -0.634108,4.524408 0.710781,6.645078 2.00956,3.168745 6.002882,4.272709 9.415673,2.602985 z m 8.07768,-14.429232 c -1.277447,-0.744046 0.636763,-1.764531 2.348105,-1.2518 1.050966,0.314877 1.256564,0.850176 0.485113,1.263045 -0.614847,0.329056 -2.260168,0.322525 -2.833218,-0.01124 z"
     id="path1" /></svg>
