<?xml version="1.0" encoding="UTF-8" standalone="no"?>
<!-- Created with Inkscape (http://www.inkscape.org/) -->

<svg
   width="200mm"
   height="200mm"
   viewBox="0 0 200 200"
   version="1.1"
   id="svg1"
   xml:space="preserve"
   xmlns="http://www.w3.org/2000/svg"
   xmlns:svg="http://www.w3.org/2000/svg"><defs
     id="defs1" /><g
     id="layer1"><path
       style="fill:#000000"
       d="m 63.758053,145.02054 c -2.584678,-0.46534 -4.770772,-1.02989 -5.581302,-1.44134 -1.967931,-0.999 -3.597322,-3.64283 -4.637933,-7.52545 -0.433777,-1.61846 -0.495065,-2.83662 -0.485878,-9.65729 0.0089,-6.57215 0.102197,-8.45309 0.590865,-11.90625 1.857996,-13.12948 5.945504,-27.439382 11.562792,-40.480032 1.064546,-2.47137 1.413076,-2.9533 2.784789,-3.85066 0.509323,-0.33319 1.372526,-1.01288 1.91823,-1.51042 0.938853,-0.85599 0.992187,-0.99122 0.992187,-2.51567 0,-1.42531 0.08038,-1.67428 0.69714,-2.15943 0.800222,-0.62945 3.133819,-0.78056 3.360965,-0.21764 0.106762,0.26459 0.13763,0.26459 0.154341,0 0.01378,-0.21812 0.475406,-0.33073 1.355831,-0.33073 1.619172,0 2.633807,0.81079 2.633807,2.10464 0,0.78416 0.03373,0.80592 1.256771,0.81102 3.487256,0.0145 7.502336,1.0083 8.533409,2.11207 1.231953,1.31881 3.052362,1.64369 9.972893,1.77984 l 6.13703,0.12074 0.41835,-1.43909 c 0.4718,-1.62291 0.92861,-5.19023 0.93162,-7.27515 0.001,-1.05744 0.0968,-1.38907 0.39889,-1.38907 0.31498,0 0.39687,-0.38217 0.39687,-1.852078 0,-1.469908 0.0819,-1.852084 0.39688,-1.852084 0.31498,0 0.39687,0.382176 0.39687,1.852084 v 1.852078 h 1.19063 1.19062 V 58.39855 c 0,-1.469908 0.0819,-1.852084 0.39688,-1.852084 0.31498,0 0.39687,0.382176 0.39687,1.852084 0,1.364578 0.0926,1.852078 0.35185,1.852078 0.25985,0 0.43498,0.93891 0.66974,3.59062 0.17484,1.97484 0.52252,4.20726 0.77263,4.96094 l 0.45474,1.37032 h 5.82083 c 4.84404,0 6.16891,-0.0853 7.89505,-0.50812 1.64465,-0.40289 2.12061,-0.63014 2.29822,-1.09729 0.38296,-1.00727 4.99419,-2.21108 8.526,-2.22581 1.25384,-0.005 1.25678,-0.007 1.25678,-0.91208 0,-0.66453 0.18627,-1.05336 0.69714,-1.45521 0.60388,-0.47501 1.06561,-0.54837 3.45161,-0.54837 2.57172,0 2.79755,0.0431 3.4039,0.64944 0.54433,0.54432 0.64943,0.9048 0.64943,2.22738 0,1.51796 0.0352,1.5997 0.92604,2.15027 0.50932,0.31478 0.92604,0.67036 0.92604,0.79019 0,0.11982 0.51889,0.52195 1.15309,0.89361 0.6342,0.37167 1.35339,0.98145 1.5982,1.35508 1.36272,2.07978 6.34874,15.66113 8.46184,23.04911 5.3644,18.755412 6.66478,37.109662 3.18897,45.010742 -0.85816,1.95072 -2.77509,3.91872 -4.30545,4.42015 -2.23085,0.73093 -6.15868,1.27699 -8.06404,1.12108 -2.26931,-0.18569 -3.22555,-0.73526 -4.46668,-2.5671 -1.2852,-1.89688 -4.93221,-9.0593 -6.03024,-11.84291 -2.14856,-5.44675 -5.05022,-8.05544 -10.71798,-9.63583 -2.09602,-0.58444 -2.29735,-0.59027 -20.6375,-0.59685 -14.638959,-0.005 -18.853566,0.0684 -20.108334,0.35167 -2.687064,0.60653 -5.483656,1.82649 -7.09439,3.09481 -1.906161,1.50094 -3.204378,3.48011 -4.80605,7.32694 -1.346369,3.23365 -3.596167,7.63564 -5.532749,10.82545 -1.512721,2.49166 -2.294731,2.93657 -5.320979,3.02731 -1.164167,0.0349 -2.414323,0.01 -2.778125,-0.0556 z m 5.546927,-1.09585 c 0.652099,-0.32907 1.283821,-1.0736 2.188464,-2.57927 1.775843,-2.95568 4.232183,-7.80681 5.224837,-10.31875 2.490698,-6.3028 5.395032,-8.97399 11.582869,-10.65306 l 2.576696,-0.69919 17.330214,-0.0732 c 16.10345,-0.068 17.51749,-0.0376 19.97604,0.42957 7.39657,1.40548 10.53041,3.86149 13.144,10.301 1.28948,3.1771 3.39905,7.40002 5.36779,10.7452 1.5651,2.65934 2.34547,3.31113 3.96425,3.31113 l 2.76337,-0.006 c 1.87444,-0.009 5.84424,-0.97905 6.92082,-1.6915 2.01649,-1.33445 3.65153,-5.00679 4.20914,-9.45383 0.35062,-2.79622 0.34959,-9.4832 -0.002,-13.58749 -1.10281,-12.87043 -4.60992,-26.691652 -10.64129,-41.936452 -2.4306,-6.14356 -2.92037,-6.84622 -5.23921,-7.51658 -2.29837,-0.66444 -6.26018,-1.43642 -8.97741,-1.74929 -3.07263,-0.3538 -5.50942,-0.14286 -8.46666,0.73293 -6.29956,1.86562 -4.86278,1.73423 -20.24063,1.85102 -15.757221,0.11968 -17.62682,3.4e-4 -22.330441,-1.42539 -4.477231,-1.35711 -6.653067,-1.57243 -10.642405,-1.05319 -4.3603,0.56753 -8.783738,1.59784 -9.947236,2.31692 -1.308754,0.80886 -2.537241,3.5513 -6.516564,14.54741 -5.415419,14.964472 -8.518546,31.986592 -8.013717,43.959022 0.280587,6.65433 1.433824,10.45673 3.859626,12.72579 1.049747,0.98191 1.521758,1.21371 3.201628,1.57223 1.083696,0.23129 2.208481,0.47277 2.499523,0.53663 0.291042,0.0639 1.600729,0.12974 2.910417,0.14639 1.787632,0.0227 2.609778,-0.085 3.297969,-0.43233 z m 20.514533,-25.90181 c -3.365346,-0.50176 -6.195606,-1.95791 -8.449587,-4.34725 -6.511971,-6.90303 -4.576647,-17.781072 3.902077,-21.932742 10.468028,-5.12575 22.117127,3.96066 19.733247,15.392112 -0.99167,4.7554 -5.016516,9.02836 -9.761778,10.36356 -1.617946,0.45526 -4.207956,0.70562 -5.423959,0.52432 z m 6.043129,-1.41264 c 5.961278,-2.27 9.586768,-8.31271 8.641748,-14.40348 -1.6544,-10.662872 -14.681624,-15.009632 -22.350173,-7.457502 -7.354705,7.243032 -4.062978,19.424012 6.0155,22.260252 1.971199,0.55473 5.695192,0.36145 7.692925,-0.39927 z m -6.175421,-2.94587 c -4.648822,-0.78577 -8.29385,-4.36081 -9.262086,-9.08424 -1.085805,-5.296977 2.328077,-10.949752 7.595431,-12.576672 9.356662,-2.88998 17.724494,6.75298 13.405424,15.448192 -2.202581,4.43427 -7.057854,7.00391 -11.738769,6.21272 z m 4.218722,-0.89933 c 2.628798,-0.49099 5.630985,-2.92989 6.966727,-5.65959 0.79842,-1.63163 0.85264,-1.92142 0.84605,-4.52149 -0.006,-2.48816 -0.0835,-2.935317 -0.73958,-4.284182 -1.580592,-3.24959 -4.47311,-5.43738 -8.009607,-6.05814 -4.321076,-0.75849 -9.023107,1.72332 -11.028174,5.82083 -0.796218,1.627135 -0.853097,1.928595 -0.853097,4.521492 0,2.46038 0.0811,2.95116 0.709099,4.29103 1.345114,2.86988 4.217224,5.22349 7.192202,5.89379 1.322411,0.29796 3.309201,0.29645 4.91638,-0.004 z m -4.686995,-0.78715 c -2.68588,-0.75115 -4.328685,-1.87859 -5.709252,-3.91821 -3.030863,-4.47773 -1.931881,-10.429482 2.468347,-13.367842 1.981318,-1.32307 3.449663,-1.7131 6.004706,-1.59498 4.151076,0.19189 7.463165,2.81052 8.662381,6.848705 0.83232,2.802737 0.25589,5.978407 -1.525722,8.405447 -2.212224,3.01365 -6.489882,4.58071 -9.90046,3.62688 z m 1.79119,-0.66268 c -0.218281,-0.14107 -0.70528,-0.25831 -1.082219,-0.26053 -1.086363,-0.006 -3.80925,-1.5096 -4.878603,-2.69325 -1.586109,-1.75563 -2.103394,-3.17446 -2.106386,-5.77747 -0.0022,-1.92681 0.102771,-2.4635 0.7329,-3.746642 1.458992,-2.97098 4.38371,-4.77882 7.731183,-4.77882 5.747382,0 9.842077,5.436785 8.241463,10.942702 -0.941096,3.23725 -2.917252,4.93511 -7.315421,6.28519 -0.918892,0.28206 -0.916849,0.28323 0.264583,0.15073 1.777249,-0.19932 4.304373,-1.54063 5.5335,-2.93699 2.965522,-3.369 2.881492,-8.702047 -0.188585,-11.970062 -1.828226,-1.9461 -3.837663,-2.80916 -6.541103,-2.80943 -1.86473,-1.9e-4 -2.336562,0.1053 -3.888677,0.8694 -3.231276,1.59076 -4.969302,4.38665 -4.969302,7.993922 0,4.12465 2.412285,7.3577 6.425681,8.61199 1.376197,0.43009 2.635862,0.5037 2.040986,0.11926 z m 1.918229,-1.09712 c 0.337629,-0.17823 0.463021,-0.57142 0.463021,-1.45189 0,-2.45216 1.448389,-4.06268 3.655416,-4.06459 1.823552,-0.002 2.165418,-0.3135 2.165418,-1.97577 0,-1.80863 -0.411756,-2.25821 -2.06942,-2.25954 -2.255509,-0.002 -3.751414,-1.566002 -3.751414,-3.922692 0,-1.36117 -0.533497,-1.89714 -1.888376,-1.89714 -1.666175,0 -2.080374,0.34947 -2.080374,1.75526 0,2.49912 -1.443139,4.062732 -3.751414,4.064572 -1.657664,10e-4 -2.06942,0.45091 -2.06942,2.25954 0,1.66227 0.341866,1.97419 2.165419,1.97577 2.254288,0.002 3.655415,1.56522 3.655415,4.07841 0,0.85416 0.129546,1.25865 0.463021,1.44573 0.577138,0.32377 2.423663,0.31912 3.042708,-0.008 z m -4.299873,-1.81742 c -0.212658,-2.22424 -0.963419,-2.95971 -3.185317,-3.12043 l -1.621646,-0.11729 0.529176,1.02561 c 0.734429,1.42341 3.330406,3.80373 4.148359,3.80373 0.184736,0 0.229257,-0.54749 0.129428,-1.59162 z m 6.622252,1.15524 c 1.234619,-0.82356 2.683843,-2.34261 3.212574,-3.36735 l 0.529176,-1.02561 -1.621646,0.11729 c -2.221899,0.16072 -2.97266,0.89619 -3.185317,3.12043 -0.165382,1.72977 -0.02473,1.8823 1.065213,1.15524 z m -8.243095,-9.997207 c 1.142363,-0.590735 1.463973,-1.150715 1.624362,-2.828265 0.08176,-0.85514 0.108591,-1.55481 0.05963,-1.55481 -0.04897,0 -0.47007,0.19172 -0.935786,0.42603 -1.188606,0.59802 -2.782814,2.17162 -3.388095,3.34429 l -0.512125,0.992175 h 1.209141 c 0.665028,0 1.539323,-0.17074 1.942877,-0.37942 z M 98.54259,99.128578 c -0.642219,-1.24192 -2.226344,-2.87649 -3.336675,-3.44294 -0.549833,-0.2805 -1.038589,-0.51001 -1.086126,-0.51001 -0.172043,0 0.215384,3.0517 0.430997,3.39489 0.46826,0.745325 1.896645,1.365645 3.146876,1.366625 l 1.263566,9.8e-4 z m 25.54046,18.782852 c -4.60259,-0.78276 -8.97852,-4.93988 -10.03814,-9.53621 -1.18041,-5.12027 1.06788,-10.531832 5.59874,-13.475992 2.1561,-1.40104 4.33841,-1.93094 7.40067,-1.79701 2.18971,0.0958 2.72273,0.22325 4.53791,1.08527 6.37964,3.02968 9.04456,10.498772 5.98503,16.774502 -2.44181,5.00865 -8.01301,7.87991 -13.48421,6.94944 z m 5.15013,-0.91639 c 3.39266,-0.88367 6.32604,-3.36058 7.88985,-6.66207 0.8051,-1.69972 0.85065,-1.95958 0.85065,-4.85271 0,-2.99947 -0.0186,-3.09449 -0.99287,-5.06535 -2.3446,-4.743062 -7.46896,-7.453842 -12.51106,-6.618342 -5.13776,0.85136 -9.11792,4.87846 -9.91798,10.034942 -1.28034,8.25202 6.55751,15.27954 14.68141,13.16353 z m -6.1445,-6.4909 c -1.71705,-0.67937 -3.70274,-2.57449 -4.55613,-4.34831 -0.92357,-1.9197 -0.92805,-5.26963 -0.01,-7.143742 1.59363,-3.25164 4.58398,-5.0182 8.20589,-4.84765 3.33571,0.15706 5.97376,1.92875 7.35088,4.93678 0.89807,1.961642 0.95259,4.849892 0.12654,6.704222 -0.74156,1.66465 -2.53394,3.55549 -4.15951,4.38799 -1.86461,0.95492 -4.97851,1.09397 -6.95812,0.31071 z m 6.20799,-0.64975 c 1.51591,-0.63339 3.06668,-2.05765 3.92216,-3.60219 0.69991,-1.26367 0.78575,-1.66586 0.78293,-3.66824 -0.003,-2.46941 -0.42685,-3.613222 -2.00093,-5.405992 -2.67838,-3.05051 -8.04823,-3.21339 -11.04915,-0.33514 -1.55636,1.49274 -2.22953,2.935805 -2.36672,5.073502 -0.15629,2.43541 0.3848,4.16335 1.81115,5.78378 1.58372,1.79919 3.32124,2.55676 5.86406,2.55676 1.25716,0 2.45238,-0.15842 3.0365,-0.40248 z m -4.55216,-1.43242 c -1.96728,-0.47893 -3.70203,-1.97903 -4.60943,-3.98593 -1.41014,-3.11884 0.0893,-7.030272 3.29789,-8.602962 1.4973,-0.7339 4.38115,-0.70477 5.82751,0.0589 1.55545,0.82123 2.92691,2.46317 3.4066,4.078455 0.51425,1.731667 0.51369,2.174447 -0.005,3.920967 -0.96283,3.2422 -4.61817,5.33386 -7.9176,4.53062 z m 3.77881,-0.95663 c 4.56827,-1.90537 5.05592,-8.090997 0.83991,-10.653742 -1.33413,-0.81097 -1.58611,-0.87099 -3.31967,-0.79075 -2.22461,0.10298 -3.63509,0.87935 -4.80252,2.64345 -0.64842,0.979835 -0.72986,1.346062 -0.72986,3.282232 0,1.99168 0.0685,2.27814 0.79539,3.32662 1.53262,2.21065 4.79587,3.20191 7.21675,2.19219 z m 11.6786,-10.245482 c -1.97172,-1.32874 -2.64006,-3.59575 -1.66551,-5.64946 0.80473,-1.69584 2.84171,-2.68096 4.799,-2.32088 1.34987,0.24834 3.12664,2.02486 3.38096,3.38048 0.22399,1.19399 -0.17341,2.70481 -0.98179,3.7325 -1.19461,1.5187 -3.92373,1.94162 -5.53266,0.85736 z m 3.53495,-0.29033 c 1.98027,-0.84379 2.90272,-3.27324 1.9456,-5.12412 -1.49613,-2.89319 -5.95192,-2.36108 -6.80657,0.81284 -0.77639,2.88333 2.14056,5.47043 4.86097,4.31128 z m -71.171886,-2.3905 c -2.482745,-0.80225 -5.037092,-2.90919 -6.124693,-5.05194 -0.29545,-0.58208 -0.737212,-1.86429 -0.981693,-2.84934 -0.41817,-1.68488 -0.417444,-1.88871 0.01226,-3.43959 0.948453,-3.42316 2.963848,-5.91216 5.902417,-7.28947 1.354098,-0.63466 1.81899,-0.7091 4.428886,-0.7091 2.744804,0 3.016775,0.0496 4.633011,0.84529 2.104435,1.03601 4.005454,2.88847 4.961159,4.83444 0.636764,1.29654 0.719017,1.7667 0.719017,4.10986 0,2.36395 -0.07914,2.807 -0.742867,4.15861 -1.022554,2.08233 -2.75207,3.77712 -4.886206,4.7881 -1.561598,0.73976 -2.08675,0.85024 -4.292803,0.90314 -1.560862,0.0374 -2.936126,-0.0763 -3.628486,-0.3 z m 5.885385,-0.56721 c 2.914196,-0.75905 5.161642,-2.64305 6.440146,-5.3987 0.972061,-2.09514 0.969374,-5.08943 -0.0064,-7.15582 -1.017989,-2.15574 -2.36735,-3.54857 -4.444621,-4.58778 -8.431484,-4.2181 -17.446653,3.98897 -13.450194,12.24455 1.096461,2.26499 3.856295,4.39958 6.491134,5.02056 1.552058,0.3658 3.255713,0.3237 4.969957,-0.12281 z m -5.299607,-1.26699 c -1.750975,-0.58018 -2.616285,-1.1309 -3.807614,-2.42334 -1.656785,-1.7974 -2.249713,-3.29248 -2.261266,-5.70182 -0.01688,-3.52141 1.836715,-6.37358 5.118574,-7.87607 3.598478,-1.64744 8.362285,-0.22104 10.483363,3.13896 2.802456,4.43938 1.039963,10.35723 -3.707961,12.45008 -1.605467,0.70768 -4.347689,0.90172 -5.825096,0.41219 z m 5.55625,-1.0626 c 1.93117,-0.90188 2.910325,-1.84057 3.821105,-3.66321 0.9546,-1.91032 1.082645,-4.07558 0.36569,-6.18386 -0.655962,-1.92892 -2.921849,-4.09419 -4.944315,-4.72477 -3.025499,-0.9433 -6.201961,-0.0384 -8.322817,2.37104 -1.427242,1.62143 -2.002597,3.38769 -1.840244,5.64928 0.212391,2.95862 1.604446,5.05512 4.226566,6.3654 2.122674,1.06072 4.669634,1.13153 6.694015,0.18612 z m -4.365625,-1.2172 c -3.345947,-0.66337 -5.756497,-3.71758 -5.476086,-6.9383 0.08206,-0.94253 0.40569,-2.00749 0.868414,-2.85767 2.878049,-5.28792 10.884538,-4.2374 12.287854,1.61227 1.12858,4.70445 -3.006253,9.11037 -7.680182,8.1837 z m 2.995289,-0.82473 c 1.291492,-0.35863 3.035008,-1.92724 3.654838,-3.28821 0.571823,-1.25555 0.637405,-3.51034 0.136843,-4.70485 -1.726766,-4.12064 -7.280585,-5.06793 -10.101075,-1.7229 -1.039826,1.23322 -1.449284,2.36057 -1.442585,3.97186 0.01691,4.06641 3.772396,6.84917 7.751979,5.7441 z m 29.841704,5.02458 c -1.78709,-0.35097 -4.27469,-1.63292 -5.5097,-2.83937 -1.17754,-1.1503 -2.266527,-3.04445 -2.577672,-4.4835 l -0.186413,-0.86217 -0.675618,0.53144 c -1.492503,1.174 -3.514672,0.24362 -3.514672,-1.61707 0,-2.00758 2.089693,-3.03842 3.503424,-1.72822 l 0.670277,0.6212 0.317307,-1.08422 c 0.784097,-2.6792 3.129947,-5.23334 5.774397,-6.28711 1.22532,-0.48828 2.03016,-0.60272 4.28668,-0.60954 2.47949,-0.008 2.94302,0.0689 4.3121,0.71035 2.81643,1.31964 4.8743,3.57489 5.50402,6.03191 l 0.33025,1.28859 0.76795,-0.64619 c 1.02202,-0.85997 1.91692,-0.82022 2.86436,0.12722 2.06788,2.06787 -0.69261,5.01268 -2.99858,3.1988 l -0.66834,-0.52572 -0.18331,0.98874 c -0.61902,3.33893 -3.95174,6.31977 -8.02324,7.17613 -1.58592,0.33357 -2.33086,0.33519 -3.99322,0.009 z m 5.84552,-1.2804 c 1.8856,-0.72314 3.99018,-2.58846 4.91711,-4.35809 0.59377,-1.13358 0.70868,-1.69252 0.71297,-3.46805 0.004,-1.78534 -0.11001,-2.3511 -0.73037,-3.61435 -3.3352,-6.79157 -14.09207,-6.82586 -17.42509,-0.0555 -0.751325,1.52617 -0.871827,2.04099 -0.854187,3.6494 0.01187,1.08213 0.194953,2.26348 0.433727,2.79862 2.15018,4.81895 7.79933,7.02175 12.94584,5.04802 z m -6.25717,-1.23668 c -2.83181,-0.90477 -4.89978,-3.18205 -5.2974,-5.8336 -0.27044,-1.80339 0.44403,-3.86208 1.86903,-5.38552 3.97607,-4.25074 11.42433,-2.83038 13.24966,2.52667 0.82618,2.42469 -0.0503,5.41922 -2.09092,7.14404 -2.00614,1.69563 -5.24133,2.34365 -7.73037,1.54841 z m 5.80695,-1.09848 c 2.26351,-1.17592 3.57188,-3.20028 3.57188,-5.52659 0,-3.61065 -3.08144,-6.45057 -6.99334,-6.4452 -4.59568,0.006 -7.90517,3.99603 -6.74675,8.13351 0.44045,1.5731 2.30941,3.51703 3.96468,4.12369 1.63138,0.59791 4.78228,0.45294 6.20353,-0.28541 z m -14.684375,-4.56494 c 0.635692,-0.63569 0.671638,-1.26635 0.117289,-2.05779 -0.579845,-0.82785 -1.824447,-0.79061 -2.389314,0.0715 -1.052302,1.60601 0.924291,3.33404 2.272025,1.9863 z m 24.547375,0.11729 c 1.14795,-0.80405 0.53312,-2.76312 -0.86717,-2.76312 -1.40028,0 -2.01511,1.95907 -0.86717,2.76312 0.32342,0.22654 0.71365,0.41188 0.86717,0.41188 0.15353,0 0.54375,-0.18534 0.86717,-0.41188 z m 9.59017,2.47952 c -1.57684,-1.07156 -2.18604,-2.23198 -2.06688,-3.93703 0.18923,-2.70754 2.32208,-4.47496 4.92855,-4.08409 1.7205,0.258 3.35668,1.89418 3.61468,3.61468 0.2336,1.55773 -0.49316,3.3172 -1.73563,4.20191 -1.31053,0.93318 -3.52772,1.02884 -4.74072,0.20453 z m 4.13536,-0.61471 c 2.9982,-1.96449 1.6394,-6.73714 -1.91971,-6.74285 -2.91926,-0.005 -4.69192,3.29333 -3.08682,5.74301 0.98342,1.50089 3.48068,1.99961 5.00653,0.99984 z m 12.28684,0.62101 c -1.39625,-0.95807 -1.95159,-1.8872 -2.06325,-3.45203 -0.13653,-1.9134 0.65068,-3.28746 2.37277,-4.14159 1.64969,-0.81822 3.24548,-0.6269 4.58563,0.54976 1.79647,1.57732 2.13742,3.19842 1.09979,5.2291 -0.82228,1.60925 -1.72487,2.19779 -3.56832,2.32678 -1.27297,0.0891 -1.67388,0.005 -2.42662,-0.51202 z m 3.50225,-0.31817 c 2.02354,-0.84549 2.8084,-2.92351 1.9133,-5.06577 -1.01205,-2.42217 -4.8746,-2.63018 -6.32557,-0.34065 -1.18308,1.86681 -0.48593,4.35264 1.46959,5.24016 1.35771,0.61621 1.80528,0.6415 2.94268,0.16626 z m -11.74938,-7.91363 c -1.54731,-1.04273 -2.15855,-2.21543 -2.03987,-3.91361 0.12951,-1.85309 0.92976,-3.03835 2.52905,-3.74579 1.77458,-0.78498 3.29739,-0.47818 4.72814,0.95257 1.68371,1.6837 1.82614,3.92879 0.36696,5.78385 -1.2228,1.55454 -3.97267,2.00905 -5.58428,0.92298 z m 3.53495,-0.29033 c 1.99989,-0.85214 2.90317,-3.27237 1.92634,-5.16136 -1.19024,-2.30166 -4.54092,-2.52171 -6.20401,-0.40744 -1.37886,1.75294 -0.70021,4.47513 1.34734,5.40442 1.35858,0.6166 1.80963,0.6419 2.93033,0.16438 z m -14.47875,-4.16053 c 0.0986,-0.15949 -0.007,-0.47668 -0.23569,-0.70488 -1.59283,-1.592831 -0.8114,2.398965 0.23569,0.70488 z m 1.32613,-0.1258 c -0.82839,-0.82839 -0.28563,-2.23006 0.86353,-2.23006 0.92862,0 1.36653,0.43791 1.36653,1.36652 0,1.14916 -1.40168,1.69193 -2.23006,0.86354 z m 1.58429,-0.66795 c 0.23326,-0.37742 -0.53893,-1.1496 -0.91635,-0.91635 -0.50422,0.31163 -0.3384,1.20632 0.22358,1.20632 0.28246,0 0.5942,-0.13049 0.69277,-0.28997 z m -19.63147,-5.66315 c -0.0993,-0.25874 -0.51082,-0.39688 -1.18232,-0.39688 -0.85364,0 -1.03003,-0.0906 -1.03003,-0.52917 0,-0.41157 0.17639,-0.52916 0.79375,-0.52916 0.52917,0 0.79375,-0.13229 0.79375,-0.39688 0,-0.26458 -0.26458,-0.39687 -0.79375,-0.39687 -0.61736,0 -0.79375,-0.11759 -0.79375,-0.52917 0,-0.39261 0.17639,-0.52917 0.68351,-0.52917 0.82886,0 0.73814,-0.62136 -0.10892,-0.746 -0.7566,-0.11133 -0.79745,-1.10608 -0.0454,-1.10608 0.29104,0 0.52917,-0.11906 0.52917,-0.26458 0,-0.14552 -0.23813,-0.26459 -0.52917,-0.26459 -0.38806,0 -0.52917,-0.17638 -0.52917,-0.66145 0,-0.48507 0.14111,-0.66146 0.52917,-0.66146 0.29104,0 0.52917,-0.11906 0.52917,-0.26459 0,-0.14552 -0.23813,-0.26458 -0.52917,-0.26458 -0.68999,0 -0.74775,-1.22699 -0.0662,-1.40511 0.25466,-0.0666 -0.48948,-0.12727 -1.65365,-0.13493 -1.56074,-0.0103 -1.95515,0.0508 -1.50171,0.23264 0.77116,0.30917 0.6689,1.14216 -0.15463,1.25966 -0.76712,0.10944 -0.76536,0.51557 0.003,0.62465 0.39074,0.0555 0.59531,0.26639 0.59531,0.61372 0,0.34732 -0.20457,0.55822 -0.59531,0.61371 -0.76806,0.10908 -0.76982,0.51521 -0.003,0.62465 0.89705,0.12799 0.92733,0.95289 0.0388,1.05765 -1.04153,0.1228 -1.14541,0.74669 -0.12433,0.74669 0.63052,0 0.8158,0.11638 0.8158,0.51241 0,0.38173 -0.21408,0.53354 -0.83952,0.59531 -1.21294,0.11979 -1.30404,0.74437 -0.10857,0.74437 0.76235,0 0.94809,0.10069 0.94809,0.51395 0,0.41376 -0.2152,0.52982 -1.10391,0.59531 -0.60716,0.0447 -1.15286,0.23019 -1.21268,0.41209 -0.0833,0.25325 0.70029,0.33073 3.34457,0.33073 2.96093,0 3.43162,-0.0566 3.30104,-0.39687 z m -38.195683,-1.48947 c 3.56764,-0.72998 8.631392,-0.91996 10.980209,-0.41194 1.018646,0.22031 2.090208,0.47936 2.38125,0.57566 0.509166,0.16846 0.51015,0.16298 0.02604,-0.14507 -1.559647,-0.99245 -7.222119,-1.67334 -10.714353,-1.28837 -2.576344,0.28401 -5.457465,1.07146 -6.245026,1.70685 -0.509796,0.4113 -0.50011,0.42053 0.264584,0.25205 0.436562,-0.0962 1.924844,-0.40632 3.307292,-0.68918 z m 72.746573,0.17574 c -3.62987,-1.89147 -12.33552,-2.05223 -16.12574,-0.29779 -0.50932,0.23576 -0.68791,0.35711 -0.39687,0.26967 3.74491,-1.12514 8.88988,-1.12814 14.02291,-0.008 3.68404,0.80382 3.98092,0.80813 2.4997,0.0363 z m -73.143448,-1.5929 c 0.873125,-0.19622 2.212578,-0.43735 2.976562,-0.53584 1.289384,-0.16621 1.389063,-0.23045 1.389063,-0.89507 0,-1.19654 -0.398239,-1.35101 -3.483191,-1.35101 -3.263687,0 -3.395976,0.088 -3.395976,2.25988 0,1.06916 0.0626,1.21215 0.463021,1.05757 0.254661,-0.0983 1.177396,-0.33931 2.050521,-0.53553 z m 72.628128,-0.87692 c 0,-0.6985 -0.14288,-1.41287 -0.3175,-1.5875 -0.20762,-0.20761 -1.30321,-0.3175 -3.16569,-0.3175 -2.54514,0 -2.87734,0.0545 -3.12209,0.51178 -0.15064,0.28147 -0.27389,0.74215 -0.27389,1.02372 0,0.4443 0.3059,0.55165 2.31511,0.81249 1.2733,0.1653 2.67229,0.40877 3.10885,0.54104 1.38634,0.42004 1.45521,0.37346 1.45521,-0.98403 z"
       id="path26" /><path
       style="fill:#000000;fill-opacity:1;fill-rule:evenodd;stroke:#000000;stroke-width:1;stroke-linecap:round"
       d="M 73.878307,64.256046 44.171994,44.946942"
       id="path27" /><path
       style="fill:#000000;fill-opacity:1;fill-rule:evenodd;stroke:#000000;stroke-width:1;stroke-linecap:round"
       d="M 75.169886,83.177675 40.813889,73.361676"
       id="path28" /><path
       style="fill:#000000;fill-opacity:1;fill-rule:evenodd;stroke:#000000;stroke-width:1;stroke-linecap:round"
       d="m 125.79977,101.77641 46.23853,1.80821"
       id="path29" /><path
       style="fill:#000000;fill-opacity:1;fill-rule:evenodd;stroke:#000000;stroke-width:1;stroke-linecap:round"
       d="M 90.410516,101.77641 101.00146,131.2244"
       id="path30" /><path
       style="fill:#000000;fill-opacity:1;fill-rule:evenodd;stroke:#000000;stroke-width:1;stroke-linecap:round"
       d="M 143.88188,64.320623 166.09703,49.338309"
       id="path31" /></g></svg>
