<?xml version="1.0" encoding="UTF-8" standalone="no"?>
<!-- Created with Inkscape (http://www.inkscape.org/) -->

<svg
   width="40mm"
   height="40mm"
   viewBox="0 0 40 40"
   version="1.1"
   id="svg1"
   xml:space="preserve"
   xmlns:inkscape="http://www.inkscape.org/namespaces/inkscape"
   xmlns:sodipodi="http://sodipodi.sourceforge.net/DTD/sodipodi-0.dtd"
   xmlns="http://www.w3.org/2000/svg"
   xmlns:svg="http://www.w3.org/2000/svg"><sodipodi:namedview
     id="namedview1"
     pagecolor="#ffffff"
     bordercolor="#000000"
     borderopacity="0.25"
     inkscape:showpageshadow="2"
     inkscape:pageopacity="0.0"
     inkscape:pagecheckerboard="0"
     inkscape:deskcolor="#d1d1d1"
     inkscape:document-units="mm" /><defs
     id="defs1" /><g
     inkscape:label="Laag 1"
     inkscape:groupmode="layer"
     id="layer1"><path
       style="fill:#000000;stroke-width:0.349458"
       d="M 4.8249125,34.760568 C 3.774883,34.415361 2.9976174,33.669306 2.3590533,32.393719 1.5611637,30.799856 1.2386869,28.42169 1.4429144,25.637478 1.938889,18.875903 2.9716951,14.305012 4.8049069,10.758293 6.1787712,8.1002742 8.0094548,6.4598114 10.127741,5.9885355 c 1.305463,-0.2904349 2.800383,-0.053512 6.829331,1.0823706 1.751614,0.4938341 1.760547,0.4952703 3.051209,0.4906468 1.42933,-0.00511 1.737277,-0.065342 4.854194,-0.9492623 2.192615,-0.6217985 3.03027,-0.7818084 4.06828,-0.7771216 2.68244,0.012125 5.010756,1.93956 6.740054,5.579609 1.013196,2.132707 1.614048,4.128286 2.223681,7.385406 0.541213,2.891553 0.733643,4.277259 0.85385,6.148653 0.14658,3.082141 0.362038,7.286872 -2.401062,9.372164 -1.204654,0.77302 -2.739025,0.69232 -4.596467,-0.241773 -1.401492,-0.704791 -2.149459,-1.296539 -4.299428,-3.401485 -1.762092,-1.725178 -2.12461,-2.006916 -3.277711,-2.547278 -1.274772,-0.597378 -2.154663,-0.769594 -3.934239,-0.770037 -1.649338,-3.47e-4 -2.570277,0.131992 -3.779858,0.543397 -1.163042,0.395578 -1.620552,0.730012 -3.487567,2.549343 -2.397813,2.336571 -4.0308214,3.547492 -5.5605387,4.123275 -0.7693178,0.289569 -1.99944,0.37713 -2.5865568,0.184125 z M 7.1819942,33.016881 C 8.555752,32.459 9.9418914,31.412073 11.964183,29.404992 c 2.165225,-2.14895 3.25691,-2.844418 5.191887,-3.307549 2.353013,-0.563189 5.774455,-0.309456 7.567715,0.561204 0.928037,0.450589 1.553113,0.952635 3.72295,2.990227 2.49095,2.339129 3.361088,2.967218 4.753523,3.431171 2.034678,0.677967 3.245101,-0.15546 3.941741,-2.714031 0.235325,-0.864276 0.241446,-0.957595 0.243243,-3.706656 0.0017,-2.44408 -0.02614,-3.016775 -0.208148,-4.295579 -0.62003,-4.35674 -1.720803,-8.37056 -2.986035,-10.888199 C 33.327743,9.757707 32.210245,8.5067476 31.044762,7.9535329 29.405974,7.175656 28.035684,7.231811 24.770016,8.2106649 22.281281,8.9566397 21.445163,9.116171 19.962051,9.128039 l -1.248224,0.01 -2.357752,-0.6669628 C 13.509842,7.6659186 12.872708,7.5264747 11.733031,7.4592488 9.0326185,7.2999588 7.0884055,8.8739302 5.4799959,12.521499 4.2031841,15.417067 3.0896294,20.532272 2.7526795,25.04964 c -0.1263825,1.694382 -0.012871,4.05927 0.2510731,5.23073 0.3618696,1.606091 1.0774539,2.635559 2.0502786,2.949612 0.4515808,0.145782 1.5036884,0.04042 2.127963,-0.213101 z M 27.315877,24.605226 c -0.560766,-0.153344 -1.263943,-0.908707 -1.475359,-1.584843 -0.543959,-1.739687 0.499212,-3.484866 2.079244,-3.478482 1.309763,0.0052 2.158955,1.00462 2.158955,2.540644 0,0.824641 -0.217637,1.452945 -0.667498,1.92703 -0.518402,0.54632 -1.380043,0.791259 -2.095342,0.595651 z m 1.149491,-1.73346 c 0.332932,-0.356411 0.406993,-0.746568 0.227074,-1.19623 -0.292944,-0.732136 -1.063712,-0.833322 -1.495329,-0.196302 -0.653498,0.964509 0.492583,2.222888 1.268255,1.392532 z m -18.077603,0.05152 C 10.018633,22.762505 9.6374565,22.301578 9.5180391,21.871595 9.4655163,21.682474 9.4223081,21.252864 9.4220245,20.916904 L 9.4215006,20.306066 8.7556292,20.244229 C 7.2784329,20.106937 6.911853,19.413959 7.0382391,16.997695 7.1165202,15.501178 7.5379195,15.009286 8.7417179,15.009286 h 0.6797827 v -0.606282 c 0,-1.244497 0.3904532,-1.947864 1.2042524,-2.169347 0.605878,-0.164892 2.204944,-0.07009 2.584261,0.153203 0.511761,0.301268 0.689623,0.708303 0.741898,1.69782 l 0.0464,0.878376 0.693457,0.04701 c 0.795657,0.05395 1.00138,0.147275 1.360039,0.617028 0.254662,0.333542 0.25841,0.357681 0.287416,1.852049 0.02703,1.392184 0.01347,1.547003 -0.168365,1.922615 -0.278169,0.57462 -0.688703,0.803913 -1.536777,0.858345 l -0.682,0.0438 v 0.754173 c 0,0.948984 -0.23171,1.475365 -0.785918,1.785403 -0.323984,0.181237 -0.501686,0.20663 -1.433143,0.204792 -0.676507,-0.0017 -1.165871,-0.04675 -1.345267,-0.124915 z m 2.269875,-2.663798 c 0.0595,-1.513152 0.03899,-1.489872 1.366676,-1.551803 l 0.991077,-0.04624 v -1.063299 -1.063302 l -0.982349,-0.02614 c -1.319439,-0.03504 -1.314177,-0.02899 -1.375404,-1.578042 l -0.04623,-1.169605 -0.901494,-0.02645 -0.901494,-0.02645 -5.24e-4,0.951075 c -5.94e-4,1.07426 -0.111626,1.599069 -0.367295,1.7359 -0.09614,0.05145 -0.5677091,0.09355 -1.0479342,0.09355 -0.5908304,0 -0.9010446,0.03737 -0.9594553,0.115577 -0.070823,0.09482 -0.096803,1.288012 -0.042281,1.941678 0.011821,0.141736 0.1218995,0.161806 0.8875244,0.161806 0.4807159,0 0.9802271,0.04839 1.1100251,0.107522 0.312619,0.142438 0.433863,0.614701 0.419238,1.632981 -0.0063,0.441188 -0.0088,0.855681 -0.0054,0.921092 0.0046,0.09029 0.223179,0.112548 0.907601,0.09245 l 0.901493,-0.02645 z m 10.796105,-0.164502 c -1.41675,-0.426592 -2.053668,-2.352797 -1.27965,-3.869997 0.514934,-1.009355 1.701611,-1.476487 2.64215,-1.040077 1.581768,0.733947 1.925282,3.015674 0.650685,4.322037 -0.604465,0.619537 -1.266434,0.81289 -2.013185,0.588037 z m 1.044011,-1.574967 c 0.2381,-0.127431 0.457182,-0.569188 0.457182,-0.921869 0,-0.901795 -0.886246,-1.34704 -1.486488,-0.746799 -0.228797,0.228797 -0.27027,0.343389 -0.27027,0.746799 0,0.403408 0.04147,0.517999 0.27027,0.746799 0.28622,0.286221 0.692498,0.355323 1.029306,0.17507 z m 6.572275,1.54044 c -0.444825,-0.160968 -0.999014,-0.655434 -1.238347,-1.104887 -0.173122,-0.325104 -0.205985,-0.533622 -0.206666,-1.311193 -7e-4,-0.980338 0.146334,-1.440872 0.631869,-1.977028 0.273092,-0.30157 1.054928,-0.656217 1.447695,-0.656689 0.896196,-10e-4 1.705863,0.578253 2.037486,1.457839 0.262751,0.696915 0.2259,1.900254 -0.07606,2.483507 -0.507425,0.980146 -1.628172,1.458687 -2.59598,1.108451 z m 1.101976,-1.54044 c 0.238103,-0.127431 0.457182,-0.569188 0.457182,-0.921869 0,-0.582725 -0.375115,-1.017071 -0.878378,-1.017071 -0.341668,0 -0.576221,0.146196 -0.73873,0.460454 -0.25552,0.494127 -0.104207,1.238659 0.299542,1.473817 0.210698,0.122723 0.63549,0.125025 0.860384,0.0047 z m -4.892873,-2.892423 c -1.879538,-0.711944 -2.113422,-3.807741 -0.363301,-4.808805 0.547431,-0.313129 0.962546,-0.368102 1.522941,-0.201682 1.599897,0.475114 2.207375,2.784884 1.110978,4.224185 -0.544673,0.715026 -1.544617,1.061302 -2.270618,0.786302 z m 1.189631,-1.713972 c 0.528703,-0.528702 0.416669,-1.433984 -0.214729,-1.735074 -0.412699,-0.196804 -0.775976,-0.08271 -1.056923,0.331936 -0.241483,0.356406 -0.26518,0.733143 -0.06986,1.110823 0.31013,0.599731 0.904577,0.729261 1.341523,0.292315 z"
       id="path4"
       sodipodi:nodetypes="sssssscscssssssscsssssssssssccsssscsssssssssscssssssscsscssscsssscssssscsscccssccccscccsssssssssscsssssssssssssscscssssssssssssssssssss" /></g></svg>
