<?xml version="1.0" encoding="UTF-8" standalone="no"?>
<!-- Created with Inkscape (http://www.inkscape.org/) -->

<svg
   width="4.0754051mm"
   height="4.0754108mm"
   viewBox="0 0 4.0754051 4.0754108"
   version="1.1"
   id="svg1"
   xml:space="preserve"
   xmlns:inkscape="http://www.inkscape.org/namespaces/inkscape"
   xmlns:sodipodi="http://sodipodi.sourceforge.net/DTD/sodipodi-0.dtd"
   xmlns="http://www.w3.org/2000/svg"
   xmlns:svg="http://www.w3.org/2000/svg"><sodipodi:namedview
     id="namedview1"
     pagecolor="#ffffff"
     bordercolor="#000000"
     borderopacity="0.25"
     inkscape:showpageshadow="2"
     inkscape:pageopacity="0.0"
     inkscape:pagecheckerboard="0"
     inkscape:deskcolor="#d1d1d1"
     inkscape:document-units="mm" /><defs
     id="defs1" /><g
     inkscape:label="Laag 1"
     inkscape:groupmode="layer"
     id="layer1"
     transform="translate(-89.500513,-3.9154192)"><path
       style="fill:#000100;fill-opacity:1;stroke:#000003;stroke-width:0.106627;stroke-dasharray:none;stroke-opacity:1"
       d="m 91.231227,7.8804184 c -0.06632,-0.055808 -0.06784,-0.061428 -0.06784,-0.2518492 V 7.4338017 l -0.08268,-0.026542 c -0.04548,-0.014598 -0.135367,-0.051096 -0.19976,-0.081106 L 90.763873,7.2715892 90.623786,7.4061076 C 90.425737,7.5962842 90.355232,7.5882784 90.1241,7.3493726 89.901085,7.1188559 89.896655,7.0639409 90.085234,6.8675551 l 0.134518,-0.1400859 -0.05456,-0.1170766 c -0.03001,-0.064392 -0.06651,-0.1542834 -0.08111,-0.1997584 l -0.02654,-0.082682 H 89.87014 c -0.177727,0 -0.190726,-0.00333 -0.251849,-0.06445 -0.06342,-0.063422 -0.06445,-0.068318 -0.06445,-0.3069892 0,-0.2287608 0.0032,-0.2463925 0.05708,-0.3103766 0.05568,-0.066173 0.06179,-0.067837 0.248782,-0.067837 h 0.191701 l 0.08048,-0.2036017 0.08048,-0.2036025 -0.130827,-0.1362433 c -0.186102,-0.193805 -0.177324,-0.2658284 0.06043,-0.4958417 0.229499,-0.2220317 0.285844,-0.2270484 0.477973,-0.042558 l 0.136243,0.1308275 0.203603,-0.080482 0.203601,-0.080482 V 4.2746142 c 0,-0.1869959 0.0017,-0.1931017 0.06784,-0.2487825 0.06398,-0.053839 0.08162,-0.057082 0.310376,-0.057082 0.238672,0 0.243568,0.00102 0.30699,0.06445 0.06112,0.061123 0.06445,0.074122 0.06445,0.2518492 V 4.472448 l 0.08268,0.026542 c 0.04548,0.014598 0.135367,0.051096 0.199758,0.081107 l 0.117077,0.054563 0.140086,-0.1345175 c 0.196386,-0.1885791 0.251301,-0.18415 0.481817,0.038866 0.238906,0.2311317 0.246911,0.3016367 0.05674,0.4996858 l -0.134518,0.1400867 0.05456,0.1170758 c 0.03001,0.064392 0.06651,0.1542834 0.08111,0.1997592 l 0.02654,0.082682 h 0.194767 c 0.190421,0 0.196042,0.00152 0.251849,0.067837 0.05384,0.063984 0.05708,0.081616 0.05708,0.3103766 0,0.2386717 -10e-4,0.2435675 -0.06445,0.3069892 -0.06112,0.061123 -0.07412,0.06445 -0.251849,0.06445 h -0.187399 l -0.02654,0.082682 c -0.0146,0.045475 -0.0511,0.1353667 -0.08111,0.1997584 l -0.05456,0.1170766 0.134518,0.1400859 c 0.190176,0.1980491 0.182171,0.2685541 -0.05674,0.4996858 -0.230516,0.2230158 -0.285431,0.2274458 -0.481817,0.038867 L 92.31256,7.2715892 92.195483,7.3261534 c -0.06439,0.03001 -0.154283,0.066508 -0.199758,0.081106 l -0.08268,0.026542 v 0.1873992 c 0,0.1777275 -0.0033,0.1907258 -0.06445,0.2518492 -0.06342,0.063422 -0.06832,0.06445 -0.30699,0.06445 -0.22876,0 -0.246392,-0.00324 -0.310376,-0.057082 z m 0.548748,-0.1178575 c 0.01255,-0.023457 0.02282,-0.1310267 0.02282,-0.239045 V 7.3271192 l 0.09371,-0.027096 c 0.05154,-0.014902 0.171046,-0.062894 0.265571,-0.1066492 l 0.171865,-0.079553 0.148393,0.1472558 c 0.08162,0.080992 0.162778,0.1472567 0.18036,0.1472567 0.04247,0 0.330729,-0.2872658 0.330729,-0.3295842 0,-0.018211 -0.06627,-0.099888 -0.147256,-0.181505 L 92.698911,6.748851 92.778461,6.5769868 c 0.04376,-0.094526 0.09175,-0.2140333 0.106649,-0.2655717 l 0.0271,-0.093707 h 0.196397 c 0.281801,0 0.281692,8.33e-5 0.281692,-0.2645834 0,-0.2646858 8.4e-5,-0.2645833 -0.281692,-0.2645833 H 92.91221 l -0.0271,-0.093707 C 92.87021,5.5432964 92.82222,5.4237886 92.778461,5.3292636 l -0.07955,-0.171865 0.147256,-0.1483933 c 0.08099,-0.081617 0.147256,-0.1627784 0.147256,-0.18036 0,-0.042466 -0.287266,-0.3307292 -0.329584,-0.3307292 -0.01821,0 -0.09989,0.066266 -0.181505,0.1472566 L 92.333942,4.79243 92.162077,4.7128758 c -0.09452,-0.043755 -0.214033,-0.091747 -0.265571,-0.1066491 l -0.09371,-0.027096 V 4.3827342 c 0,-0.2818017 8.4e-5,-0.2816925 -0.264583,-0.2816925 -0.264686,0 -0.264583,-8.34e-5 -0.264583,0.2816925 v 0.1963966 l -0.09371,0.027096 c -0.05154,0.014903 -0.171046,0.062894 -0.265571,0.1066491 L 90.74249,4.79243 90.594097,4.6451733 c -0.08162,-0.080991 -0.162779,-0.1472566 -0.18036,-0.1472566 -0.04247,0 -0.330729,0.2872658 -0.330729,0.3295842 0,0.018212 0.06626,0.099888 0.147256,0.181505 l 0.147257,0.1483933 -0.07955,0.171865 c -0.04376,0.094525 -0.09175,0.2140325 -0.10665,0.2655708 l -0.0271,0.093707 h -0.196397 c -0.281801,0 -0.281692,-8.33e-5 -0.281692,0.2645833 0,0.2646859 -1.09e-4,0.2645834 0.281692,0.2645834 h 0.196397 l 0.0271,0.093707 c 0.0149,0.051538 0.06289,0.1710459 0.10665,0.2655717 l 0.07955,0.1718642 -0.147257,0.1483933 c -0.08099,0.081617 -0.147256,0.1627784 -0.147256,0.18036 0,0.042466 0.287265,0.3307292 0.329584,0.3307292 0.01821,0 0.09989,-0.066265 0.181505,-0.1472567 l 0.148393,-0.1472558 0.171865,0.079553 c 0.09453,0.043755 0.214033,0.091748 0.265571,0.1066492 l 0.09371,0.027096 v 0.1963967 c 0,0.2818017 -8.4e-5,0.2816925 0.264583,0.2816925 0.193888,0 0.221546,-0.00487 0.241759,-0.042647 z M 91.31773,6.8271317 C 90.866123,6.7041892 90.572886,6.2589184 90.649392,5.81228 c 0.06568,-0.3834208 0.365201,-0.6824116 0.749586,-0.7482541 0.586665,-0.1004917 1.129228,0.4412375 1.028483,1.0269033 -0.03441,0.2000367 -0.108635,0.3405175 -0.259779,0.4916617 -0.238097,0.2380967 -0.547076,0.3269933 -0.849952,0.2445408 z m 0.559202,-0.1873591 c 0.165617,-0.081533 0.282765,-0.20237 0.36386,-0.3753209 0.04853,-0.1034983 0.0581,-0.1548658 0.0581,-0.31179 0,-0.1675208 -0.0078,-0.203695 -0.07187,-0.3338692 C 92.143372,5.4488842 92.023846,5.3322784 91.849543,5.25055 91.746119,5.202056 91.694639,5.192448 91.538216,5.192448 c -0.156423,0 -0.207903,0.00961 -0.311327,0.058102 -0.174303,0.081728 -0.293833,0.1983342 -0.377479,0.3682425 -0.06408,0.1301742 -0.07187,0.1663484 -0.07187,0.3338692 0,0.1563117 0.0096,0.20842 0.05735,0.31015 0.191553,0.4083967 0.644991,0.5724284 1.042042,0.3769609 z"
       id="path1" /></g></svg>
