<?xml version="1.0" encoding="UTF-8" standalone="no"?>
<!-- Created with Inkscape (http://www.inkscape.org/) -->

<svg
   width="40mm"
   height="40mm"
   viewBox="0 0 40 40"
   version="1.1"
   id="svg1"
   xml:space="preserve"
   xmlns="http://www.w3.org/2000/svg"
   xmlns:svg="http://www.w3.org/2000/svg"><defs
     id="defs1" /><g
     id="layer1"><path
       style="fill:#000000"
       d="m 4.1534765,34.976432 c -0.6402954,-0.640296 -0.6494318,-0.71491 -0.6494318,-5.303693 0,-4.588784 0.00914,-4.663398 0.6494318,-5.303693 0.3571875,-0.357188 0.957912,-0.649432 1.3349432,-0.649432 0.3770313,0 0.9777557,0.292244 1.3349432,0.649432 0.6204985,0.620498 0.6494318,0.797313 0.6494318,3.96875 v 3.319318 H 19.511336 31.549878 v -3.319318 c 0,-3.171437 0.02893,-3.348252 0.649432,-3.96875 0.827689,-0.827689 1.842197,-0.827689 2.669886,0 0.641068,0.641067 0.649432,0.710332 0.649432,5.377837 0,4.600449 -0.01657,4.743974 -0.612365,5.303693 l -0.612365,0.575288 H 19.548403 4.8029084 Z M 18.176393,27.038932 17.526961,26.3895 v -8.010708 -8.010709 l -2.584421,2.574724 c -2.200689,2.192432 -2.711394,2.574723 -3.439583,2.574723 -1.104496,0 -1.9134956,-0.803107 -1.9134956,-1.899558 0,-0.731569 0.5432066,-1.389605 4.1671876,-5.0480951 4.377101,-4.4187817 5.221318,-5.0693424 6.244965,-4.8124232 0.344925,0.08657 2.60814,2.1508543 5.029367,4.5872972 3.704635,3.7279171 4.40223,4.5540371 4.40223,5.2133001 0,1.238231 -0.66115,1.959479 -1.796206,1.959479 -0.876539,0 -1.227352,-0.253943 -3.556873,-2.574723 l -2.584421,-2.574724 v 8.010709 8.010708 l -0.649431,0.649432 c -0.357188,0.357187 -0.957912,0.649432 -1.334944,0.649432 -0.377031,0 -0.977755,-0.292245 -1.334943,-0.649432 z"
       id="path4" /></g></svg>
